<svg width="2502" height="348" xmlns="http://www.w3.org/2000/svg" xmlns:xlink="http://www.w3.org/1999/xlink" xml:space="preserve" overflow="hidden"><g transform="translate(27 -3836)"><g><path d="M21 4077.4C22.916 4079.25 24.8321 4081.1 43.9932 4086.76 63.1542 4092.42 88.5859 4104.13 135.966 4111.35 183.346 4118.56 266.957 4127.93 328.273 4130.08 389.588 4132.22 448.116 4130.86 503.857 4124.22 559.598 4117.59 613.597 4101.98 662.719 4090.27 711.841 4078.57 750.859 4063.35 798.588 4053.98 846.316 4044.62 893.347 4034.67 949.089 4034.08 1004.83 4033.5 1068.93 4039.94 1133.03 4050.47 1197.14 4061.01 1269.6 4083.25 1333.7 4097.3 1397.8 4111.35 1444.84 4129.3 1517.65 4134.76 1590.46 4140.22 1705.77 4138.86 1770.57 4130.08 1835.37 4121.3 1880.31 4092.61 1906.44 4082.08 1932.57 4071.54 1912.02 4082.27 1927.34 4066.86 1942.67 4051.45 1990.05 4013.99 1998.41 3989.6 2006.78 3965.21 2001.55 3938.09 1977.51 3920.53 1953.47 3902.97 1893.55 3881.51 1854.18 3884.24 1814.82 3886.97 1756.29 3914.67 1741.31 3936.92 1726.33 3959.16 1744.79 3995.84 1764.3 4017.69 1783.81 4039.54 1818.65 4054.96 1858.36 4068.03 1898.08 4081.1 1950.69 4091.64 2002.59 4096.13 2054.5 4100.61 2119.65 4099.83 2169.82 4094.96 2219.98 4090.08 2252.73 4085.2 2303.6 4066.86 2354.46 4048.52 2475 3984.91 2475 3984.91L2475 3984.91" stroke="#00422B" stroke-width="91.6667" stroke-linecap="butt" stroke-linejoin="miter" stroke-miterlimit="8" stroke-opacity="1" fill="none" fill-rule="evenodd"/></g></g></svg>