<svg width="3079" height="523" xmlns="http://www.w3.org/2000/svg" xmlns:xlink="http://www.w3.org/1999/xlink" xml:space="preserve" overflow="hidden"><g transform="translate(476 -4940)"><g><path d="M0 324.357C2.36415 327.466 4.72853 330.575 28.3714 340.064 52.0143 349.554 83.3946 369.188 141.857 381.296 200.319 393.403 303.488 409.111 379.145 412.71 454.802 416.31 527.02 414.019 595.799 402.893 664.578 391.767 731.208 365.589 791.819 345.955 852.431 326.321 900.576 300.797 959.469 285.089 1018.36 269.382 1076.39 252.693 1145.17 251.712 1213.95 250.73 1293.05 261.529 1372.14 279.199 1451.24 296.87 1540.65 334.174 1619.75 357.735 1698.84 381.296 1756.88 411.401 1846.72 420.564 1936.56 429.726 2078.85 427.436 2158.8 412.71 2238.76 397.985 2294.21 349.881 2326.45 332.211 2358.69 314.54 2333.33 332.538 2352.25 306.687 2371.16 280.835 2429.62 218.007 2439.94 177.102 2450.26 136.198 2443.81 90.7131 2414.15 61.2621 2384.49 31.8111 2310.55-4.18446 2261.97 0.396802 2213.4 4.97806 2141.18 51.445 2122.7 88.7496 2104.21 126.054 2126.99 187.574 2151.07 224.224 2175.14 260.874 2218.13 286.725 2267.13 308.65 2316.14 330.575 2381.05 348.245 2445.1 355.772 2509.15 363.298 2589.53 361.989 2651.43 353.808 2713.34 345.627 2753.74 337.447 2816.5 306.687 2879.27 275.927 3028 169.249 3028 169.249L3028 169.249" stroke="#F8CAD0" stroke-width="91.6667" stroke-linecap="butt" stroke-linejoin="miter" stroke-miterlimit="8" stroke-opacity="1" fill="none" fill-rule="evenodd" transform="matrix(-1 0 0 1 2555 4987)"/></g></g></svg>